<svg width="48" height="48" viewBox="0 0 48 48" fill="none" xmlns="http://www.w3.org/2000/svg">
<path fill-rule="evenodd" clip-rule="evenodd" d="M24.0001 47.3334C36.8867 47.3334 47.3334 36.8867 47.3334 24C47.3334 11.1134 36.8867 0.666687 24.0001 0.666687C11.1134 0.666687 0.666748 11.1134 0.666748 24C0.666748 36.8867 11.1134 47.3334 24.0001 47.3334ZM30.1872 20.8539C30.8706 20.1705 30.8706 19.0624 30.1872 18.379C29.5038 17.6956 28.3958 17.6956 27.7123 18.379L24 22.0913L20.2877 18.379C19.6043 17.6956 18.4963 17.6956 17.8129 18.379C17.1294 19.0624 17.1294 20.1705 17.8129 20.8539L21.5252 24.5662L17.8129 28.2785C17.1294 28.9619 17.1294 30.0699 17.8129 30.7534C18.4963 31.4368 19.6043 31.4368 20.2877 30.7534L24 27.0411L27.7124 30.7534C28.3958 31.4368 29.5038 31.4368 30.1872 30.7534C30.8706 30.0699 30.8706 28.9619 30.1872 28.2785L26.4749 24.5662L30.1872 20.8539Z" fill="#DF4850"/>
</svg>
