<svg width="156" height="25" viewBox="0 0 156 25" fill="none" xmlns="http://www.w3.org/2000/svg">
<path d="M45.072 8.87147C45.4972 8.51473 45.5968 7.98686 45.5959 7.75235C45.5867 5.1782 44.3087 2.79328 42.1712 1.49669C38.72 -0.595771 34.7532 1.49126 33.7055 2.18935C32.4165 3.0477 31.7573 4.16501 31.7573 4.16501C31.4602 4.66844 31.2984 5.12568 31.2088 5.43262C31.1585 5.74138 31.1146 6.12438 31.1037 6.57438C31.1037 6.59249 31.1037 6.60516 31.1037 6.61331C31.0918 7.12036 30.9848 11.8322 31.1055 14.0877C31.11 14.1746 31.1174 14.2615 31.132 14.3765C31.2746 15.4793 31.8478 16.2616 32.2153 16.7515C32.3296 16.9036 32.8023 17.5211 33.5894 18.1522C34.7468 19.0803 35.8366 19.4406 36.1529 19.5366C36.6639 19.6914 38.379 20.1849 40.4251 19.5366C42.5844 18.8521 43.719 17.3355 44.0755 16.8438C45.1379 15.3807 45.3929 13.9057 45.4652 13.1687C45.4706 13.1098 45.4816 13.0519 45.4944 12.9939C45.5383 12.8038 45.5904 12.4117 45.3957 11.9979C45.3399 11.8793 45.1945 11.5796 44.8517 11.3822C44.3379 11.0862 43.8004 11.2645 43.687 11.3053C43.2847 11.4511 43.0681 11.7354 42.9876 11.844C42.7325 12.189 42.6877 12.5403 42.6768 12.6906C42.6567 12.9704 42.6018 13.3787 42.4437 13.8441C42.3211 14.2054 41.7699 15.8297 40.0356 16.613C38.1541 17.4632 36.4153 16.6292 36.2297 16.536C34.7057 15.7727 34.1681 14.3883 34.0557 14.0768C34.0401 14.0379 34.0246 13.999 34.0081 13.96C33.9359 13.7862 33.8993 13.5997 33.8993 13.4122V7.07509C33.8993 6.66402 34.0136 6.36885 34.0548 6.2285C34.0776 6.15064 34.2486 5.5784 34.5914 5.07045C35.2944 4.0301 36.4683 3.63805 36.7737 3.53573C37.1348 3.41531 38.2465 3.05857 39.5693 3.45877C41.2232 3.95857 42.024 5.27417 42.2471 5.68886C42.2727 5.73685 42.2965 5.78665 42.3166 5.83826C42.5671 6.47569 42.6494 7.00537 42.6768 7.38293C42.7079 7.81935 42.6658 8.05567 42.8322 8.38254C42.9748 8.66322 43.2756 9.02087 43.7638 9.15216C44.2401 9.27982 44.7393 9.15216 45.072 8.87238V8.87147Z" fill="#F0F4FF"/>
<path d="M75.957 0.459473C75.1671 0.459473 74.5198 1.09962 74.5198 1.88282V7.11352C73.3195 6.21986 71.8265 5.69108 70.2093 5.69108C66.2416 5.69108 63.0244 8.87641 63.0244 12.8069C63.0244 16.7374 66.2406 19.9227 70.2093 19.9227C71.8265 19.9227 73.3195 19.3931 74.5198 18.5003C74.5198 19.2826 75.1662 19.9227 75.957 19.9227C76.7478 19.9227 77.3941 19.2826 77.3941 18.4994V1.88282C77.3941 1.10052 76.7478 0.459473 75.957 0.459473ZM70.287 16.9982C67.9493 16.9982 66.0541 15.1212 66.0541 12.806C66.0541 10.4908 67.9493 8.61383 70.287 8.61383C72.6247 8.61383 74.5198 10.4908 74.5198 12.806C74.5198 15.1212 72.6247 16.9982 70.287 16.9982Z" fill="#F0F4FF"/>
<path d="M125.2 5.88214C125.124 5.17771 125.001 4.15366 124.268 3.18937C123.868 2.66332 123.403 2.31019 123.142 2.11281C122.525 1.6447 121.937 1.3613 121.511 1.19017C120.974 0.98192 120.517 0.869646 120.191 0.80536C119.8 0.728398 119.479 0.696707 119.026 0.651435C119.026 0.651435 118.511 0.600731 117.993 0.574473C117.197 0.534634 114.991 0.522863 112.036 0.574473C111.88 0.581717 111.514 0.621556 111.181 0.882322C110.961 1.05526 110.843 1.25627 110.793 1.34409C110.741 1.43464 110.673 1.55506 110.637 1.7289C110.597 1.92538 110.617 2.09017 110.637 2.19068C110.694 2.33011 110.769 2.48676 110.87 2.65245C111.023 2.90054 111.189 3.0934 111.331 3.23646L116.916 8.76777C117.475 9.32099 118.389 9.32099 118.948 8.76777C119.507 8.21455 119.507 7.30911 118.948 6.75498L115.582 3.42117H118.715C118.729 3.42117 118.742 3.41935 118.755 3.41935V3.42117C118.956 3.40939 120.571 3.34239 121.628 4.57469C122.435 5.51635 122.411 6.62641 122.405 6.95961C122.384 8.0244 121.915 8.76324 121.783 8.95972C121.668 9.13085 121.034 10.0462 119.842 10.4211C119.49 10.5316 119.228 10.5515 118.521 10.575C116.033 10.6583 114.138 10.5859 113.862 10.575C113.513 10.5614 113.029 10.5397 112.446 10.5098C112.269 10.4953 111.986 10.4935 111.661 10.5949C111.491 10.6475 111.302 10.7063 111.113 10.8666C110.681 11.2306 110.645 11.7829 110.638 11.8834C110.633 11.9658 110.635 12.0346 110.638 12.0808C110.638 14.2203 110.638 16.3598 110.638 18.4985C110.638 19.279 111.286 19.9218 112.075 19.9218C112.864 19.9218 113.512 19.2817 113.512 18.4985V13.1944C115.276 13.2153 117.023 13.2135 118.756 13.1908C119.284 13.1836 120.024 13.1682 120.93 12.883C121.374 12.7435 122.39 12.4103 123.339 11.4986C124.177 10.6918 124.533 9.84252 124.736 9.34453C124.88 8.99232 125.394 7.65046 125.203 5.88305L125.2 5.88214Z" fill="#F0F4FF"/>
<path d="M155.919 15.036V7.11251C155.925 7.02196 155.954 6.4778 155.543 6.06582C155.146 5.66924 154.628 5.68373 154.443 5.68916C154.266 5.69459 153.808 5.70727 153.44 6.06582C153.021 6.47508 153.041 7.02106 153.045 7.11251C153.045 7.36603 153.045 12.7787 153.045 12.7986C153.045 12.8032 153.045 13.1644 153.045 13.169V13.6479C152.981 13.9639 152.677 15.3031 151.492 16.1506C150.793 16.6495 149.985 16.7925 149.706 16.8432C149.265 16.9229 148.887 16.9302 148.619 16.9202C148.384 16.9229 148.063 16.9102 147.687 16.8432C146.621 16.6531 145.901 16.1506 145.901 16.1506C144.942 15.4815 144.585 14.4972 144.467 14.107C144.427 13.954 144.388 13.801 144.347 13.6479C144.285 12.8385 144.238 12.0001 144.207 11.1363C144.158 9.7102 144.164 8.34933 144.207 7.0618C144.213 6.97669 144.238 6.45878 143.842 6.06582C143.476 5.70365 143.011 5.70365 142.836 5.70365C142.662 5.70365 142.194 5.70365 141.83 6.06582C141.417 6.47689 141.465 7.03011 141.473 7.11251C141.418 9.25839 141.414 11.4296 141.466 13.6235C141.467 13.7186 141.47 13.8145 141.473 13.9096C141.486 13.9811 141.506 14.0862 141.533 14.2111C141.659 14.7761 142.052 16.4267 143.492 17.8437C144.312 18.6505 145.134 19.0489 145.511 19.2282C146.263 19.5849 146.881 19.727 147.064 19.7669C147.568 19.8764 148 19.909 148.308 19.919V19.9208C148.58 19.9344 148.92 19.9371 149.309 19.9081C149.845 19.8683 150.241 19.785 150.327 19.7669C150.511 19.727 151.128 19.5858 151.88 19.2282C152.067 19.1394 152.463 18.942 152.922 18.6315C152.893 19.1322 152.759 19.7732 152.347 20.3817C151.787 21.2056 150.984 21.5723 150.56 21.7661C150.068 21.9906 149.627 22.0966 149.318 22.1509C148.899 22.226 148.51 22.3039 148.153 22.3818C147.759 22.4669 147.562 22.5176 147.376 22.6896C147.155 22.8943 147.086 23.146 147.065 23.2284C146.897 23.8803 147.365 24.4561 147.532 24.6128C147.74 24.8093 147.998 24.9206 147.998 24.9206C148.007 24.9252 148.015 24.9279 148.02 24.9297C148.033 24.9315 148.044 24.9333 148.057 24.9351C148.709 25.0248 150.32 25.1542 152.037 24.3049C153.602 23.5308 154.409 22.3628 154.756 21.8431C155.011 21.461 155.706 20.4016 155.92 18.9203C156.014 18.2774 156.004 17.6391 155.998 17.2661C155.988 16.5834 155.92 15.6553 155.92 15.0351L155.919 15.036Z" fill="#F0F4FF"/>
<path d="M54.2874 5.68994C50.3197 5.68994 47.1025 8.87527 47.1025 12.8058C47.1025 16.7363 50.3188 19.9216 54.2874 19.9216C58.256 19.9216 61.4723 16.7363 61.4723 12.8058C61.4723 8.87527 58.256 5.68994 54.2874 5.68994ZM54.3651 16.9979C52.0275 16.9979 50.1323 15.121 50.1323 12.8058C50.1323 10.4906 52.0275 8.61359 54.3651 8.61359C56.7028 8.61359 58.598 10.4906 58.598 12.8058C58.598 15.121 56.7028 16.9979 54.3651 16.9979Z" fill="#F0F4FF"/>
<path d="M139.813 6.83531C139.681 6.1843 139.098 5.68994 138.404 5.68994C137.632 5.68994 137 6.30111 136.97 7.05805C135.745 6.17163 134.227 5.65915 132.587 5.69084C128.765 5.7669 125.642 8.84719 125.551 12.6319C125.455 16.6412 128.708 19.9207 132.733 19.9207C134.317 19.9207 135.781 19.4127 136.969 18.5526C136.998 19.3095 137.631 19.9207 138.403 19.9207C139.097 19.9207 139.68 19.4263 139.812 18.7753V6.83531H139.813ZM132.994 16.9536C130.482 17.0794 128.419 15.0358 128.546 12.5486C128.655 10.419 130.403 8.68784 132.553 8.58009C135.064 8.45423 137.128 10.4978 137.001 12.985C136.892 15.1146 135.144 16.8458 132.994 16.9536Z" fill="#F0F4FF"/>
<path d="M93.2797 12.765C93.2678 12.4291 93.223 10.2289 91.7941 8.47143C91.5564 8.17898 89.5323 5.76871 86.3371 5.73521C82.9188 5.69989 79.0507 8.39538 78.8971 12.5885C78.7344 17.0432 82.9581 19.6273 85.8169 19.9569C86.1597 19.9967 88.214 20.2023 89.993 19.0143C90.4127 18.7336 91.5509 17.9731 91.5472 16.9318C91.5472 16.8304 91.5454 16.3659 91.208 15.9938C90.7519 15.4904 90.0433 15.5574 89.9802 15.5646C89.3814 15.6343 89.2068 16.04 88.6272 16.4402C87.436 17.2623 85.9705 17.0686 85.6523 17.026C85.2601 16.9744 84.2591 16.8277 83.3576 16.0201C82.8054 15.5248 82.5001 14.9698 82.331 14.5569C82.4105 14.5695 82.4919 14.5777 82.5751 14.5777H91.7429C92.594 14.5777 93.2842 13.8941 93.2842 13.0511C93.2842 12.9841 93.2842 12.8845 93.2806 12.765H93.2797ZM82.1225 11.3851C82.1536 11.2901 82.1847 11.204 82.2149 11.1298C82.2734 11.0085 82.3556 10.8518 82.4644 10.6771C82.7177 10.2696 82.9682 9.99981 83.0358 9.92738C83.1976 9.75625 83.5533 9.40856 84.0762 9.11792C84.3496 8.9658 85.2757 8.46691 86.5053 8.58914C87.3272 8.67063 87.9123 8.99387 88.2707 9.19126C88.5029 9.31892 88.8338 9.52536 89.1794 9.83955C89.1794 9.83955 89.663 10.2796 89.9217 10.7903C90.0086 10.9614 90.0497 11.1081 90.0598 11.2575C90.0616 11.2792 90.0616 11.2991 90.0616 11.3181H82.5741C82.4169 11.3181 82.2651 11.3417 82.1216 11.3851H82.1225Z" fill="#F0F4FF"/>
<path d="M109.004 12.765C108.992 12.4291 108.948 10.2289 107.519 8.47143C107.281 8.17898 105.257 5.76871 102.062 5.73521C98.6434 5.69989 94.7753 8.39538 94.6218 12.5885C94.459 17.0432 98.6827 19.6273 101.541 19.9569C101.884 19.9967 103.939 20.2023 105.718 19.0143C106.137 18.7336 107.275 17.9731 107.272 16.9318C107.272 16.8304 107.27 16.3659 106.933 15.9938C106.476 15.4904 105.768 15.5574 105.705 15.5646C105.106 15.6343 104.931 16.04 104.352 16.4402C103.161 17.2623 101.695 17.0686 101.377 17.026C100.985 16.9744 99.9837 16.8277 99.0822 16.0201C98.5301 15.5248 98.2247 14.9698 98.0556 14.5569C98.1351 14.5695 98.2165 14.5777 98.2997 14.5777H107.467C108.319 14.5777 109.009 13.8941 109.009 13.0511C109.009 12.9841 109.009 12.8845 109.005 12.765H109.004ZM97.8471 11.3851C97.8782 11.2901 97.9093 11.204 97.9395 11.1298C97.998 11.0085 98.0803 10.8518 98.189 10.6771C98.4423 10.2696 98.6928 9.99981 98.7604 9.92738C98.9223 9.75625 99.2779 9.40856 99.8008 9.11792C100.074 8.9658 101 8.46691 102.23 8.58914C103.052 8.67063 103.637 8.99387 103.995 9.19126C104.227 9.31892 104.558 9.52536 104.904 9.83955C104.904 9.83955 105.388 10.2796 105.646 10.7903C105.733 10.9614 105.774 11.1081 105.784 11.2575C105.786 11.2792 105.786 11.2991 105.786 11.3181H98.2987C98.1415 11.3181 97.9897 11.3417 97.8462 11.3851H97.8471Z" fill="#F0F4FF"/>
<path d="M19.7535 3.50153C15.922 -0.373738 8.45736 -1.66127 3.48673 2.91481C-1.60731 7.60497 -0.512985 15.3238 2.89432 19.0252C5.83445 22.2196 11.296 23.2907 12.7798 21.9543C13.4673 21.335 13.534 20.5862 13.534 20.5862C13.6291 19.5241 12.6765 18.7563 12.6344 18.7228C11.8765 18.1298 11.2137 18.3932 10.1002 18.1959C7.81009 17.7893 6.37293 15.9259 6.06027 15.5212C5.67538 15.0223 4.70905 13.733 4.61214 11.8062C4.52895 10.1474 5.13416 8.89793 5.43768 8.35829C5.44134 8.35195 5.445 8.34561 5.44774 8.33837C5.68635 7.8268 6.13432 7.03364 6.93883 6.27669C7.66473 5.59399 8.39976 5.20647 8.89984 4.99097C8.90898 4.98735 8.91629 4.98373 8.92544 4.98101C9.12931 4.91039 9.39626 4.82709 9.7135 4.75284C10.4659 4.57538 11.0583 4.55093 11.2183 4.5455C11.5977 4.53282 12.3976 4.53825 13.3219 4.7954C13.8046 4.9294 15.4256 5.40476 16.6771 6.92227C17.5155 7.93726 17.808 8.9595 17.9881 9.58516C18.1042 9.99079 18.2441 10.5956 18.2761 11.3399C18.2761 11.3399 18.3209 12.3802 18.0302 13.2495C17.9323 13.5401 17.8117 13.7529 17.6526 13.9331L17.6499 13.9367C17.5182 14.0852 17.2851 14.0852 17.1479 13.9421C15.3561 12.0642 13.5651 10.1855 11.7732 8.30758C11.7156 8.24783 11.5675 8.10386 11.3335 8.01785C11.1689 7.95718 10.9203 7.90919 10.4549 8.01785C9.63122 8.20889 9.08268 8.66433 8.99035 8.7431C8.80476 8.90065 8.37782 9.27187 8.11178 9.90387C7.99019 10.1918 7.81649 10.621 7.9655 11.0646C8.04778 11.3118 8.20046 11.4657 8.24983 11.521C9.57088 12.9642 10.8919 14.4084 12.213 15.8517L15.9777 19.5857C15.9887 19.5966 15.9997 19.6056 16.0116 19.6147C16.209 19.765 16.4074 19.9153 16.6049 20.0656C16.6259 20.0819 16.6488 20.0955 16.6735 20.1063C16.7695 20.1489 17.0373 20.2566 17.3326 20.2883C17.4314 20.2992 17.5292 20.2983 17.627 20.291C17.5557 19.9596 17.4981 19.6246 17.446 19.2905C17.3271 18.5408 17.2302 17.754 17.3856 17.0016C17.5539 16.1885 18.0759 15.609 18.7926 15.2287L21.069 17.4833C21.8361 16.3379 22.5848 14.748 22.8061 12.7252C22.871 12.1276 23.3372 7.12599 19.7553 3.50243L19.7535 3.50153Z" fill="#F0F4FF"/>
<path d="M21.0672 17.4825L20.0058 16.4312L11.7404 8.2452C11.0849 7.596 10.0125 7.596 9.3579 8.2452L8.03777 9.55265C7.38227 10.2018 7.38227 11.2639 8.03777 11.9122L16.3032 20.0983C16.466 20.2286 16.9094 20.5519 17.4945 20.5854C17.6581 20.5944 17.9306 20.6071 18.2258 20.4641C18.3484 20.4043 18.4389 20.3355 18.5001 20.283C18.683 20.1408 18.9417 19.9289 19.2315 19.6492C19.3732 19.5124 19.7014 19.1946 19.9135 18.9203C20.2536 18.5663 20.6622 18.0873 21.0672 17.4834V17.4825Z" fill="#30F1E4"/>
</svg>
