<svg width="176" height="31" viewBox="0 0 176 31" fill="none" xmlns="http://www.w3.org/2000/svg">
<g clip-path="url(#clip0_54_4297)">
<path d="M51.0616 11.1458C51.5385 10.7177 51.6503 10.0843 51.6492 9.80287C51.639 6.71388 50.2052 3.85198 47.8075 2.29608C43.9359 -0.214876 39.486 2.28956 38.3107 3.12727C36.8646 4.15729 36.1252 5.49806 36.1252 5.49806C35.7919 6.10217 35.6104 6.65087 35.5099 7.0192C35.4534 7.3897 35.4042 7.8493 35.3919 8.3893C35.3919 8.41103 35.3919 8.42625 35.3919 8.43602C35.3786 9.04448 35.2586 14.6987 35.394 17.4053C35.3991 17.5096 35.4073 17.6139 35.4237 17.7519C35.5837 19.0753 36.2267 20.014 36.639 20.6018C36.7672 20.7844 37.2974 21.5254 38.1804 22.2827C39.4788 23.3964 40.7013 23.8288 41.0561 23.944C41.6294 24.1298 43.5534 24.7219 45.8486 23.944C48.271 23.1226 49.5437 21.3026 49.9437 20.7127C51.1354 18.9568 51.4216 17.1869 51.5026 16.3025C51.5087 16.2318 51.521 16.1623 51.5354 16.0928C51.5846 15.8646 51.6431 15.3941 51.4246 14.8976C51.3621 14.7552 51.199 14.3956 50.8144 14.1587C50.2381 13.8035 49.635 14.0175 49.5078 14.0664C49.0566 14.2413 48.8135 14.5825 48.7233 14.7129C48.4372 15.1268 48.3869 15.5484 48.3746 15.7288C48.352 16.0645 48.2905 16.5545 48.1131 17.113C47.9756 17.5465 47.3572 19.4957 45.4117 20.4356C43.3011 21.4558 41.3505 20.4552 41.1423 20.3432C39.4327 19.4273 38.8296 17.766 38.7035 17.3922C38.686 17.3455 38.6686 17.2988 38.6501 17.2521C38.5691 17.0435 38.5281 16.8196 38.5281 16.5947V8.99015C38.5281 8.49687 38.6563 8.14266 38.7024 7.97425C38.7281 7.88081 38.9199 7.19413 39.3045 6.58459C40.0931 5.33617 41.41 4.86571 41.7525 4.74293C42.1576 4.59842 43.4047 4.17033 44.8887 4.65058C46.7439 5.25034 47.6423 6.82906 47.8926 7.32668C47.9213 7.38427 47.948 7.44403 47.9705 7.50596C48.2515 8.27087 48.3438 8.90649 48.3746 9.35957C48.4095 9.88327 48.3623 10.1669 48.5489 10.5591C48.7089 10.8959 49.0463 11.3251 49.594 11.4826C50.1283 11.6358 50.6883 11.4826 51.0616 11.1469V11.1458Z" fill="#00103C"/>
<path d="M85.7084 1.05078C84.8223 1.05078 84.0962 1.81895 84.0962 2.7588V9.03564C82.7496 7.96324 81.0749 7.32871 79.2606 7.32871C74.8097 7.32871 71.2007 11.1511 71.2007 15.8677C71.2007 20.5843 74.8086 24.4067 79.2606 24.4067C81.0749 24.4067 82.7496 23.7711 84.0962 22.6998C84.0962 23.6385 84.8213 24.4067 85.7084 24.4067C86.5955 24.4067 87.3206 23.6385 87.3206 22.6987V2.7588C87.3206 1.82004 86.5955 1.05078 85.7084 1.05078ZM79.3478 20.8972C76.7254 20.8972 74.5994 18.6449 74.5994 15.8666C74.5994 13.0884 76.7254 10.836 79.3478 10.836C81.9702 10.836 84.0962 13.0884 84.0962 15.8666C84.0962 18.6449 81.9702 20.8972 79.3478 20.8972Z" fill="#00103C"/>
<path d="M140.949 7.55798C140.863 6.71267 140.725 5.48381 139.904 4.32666C139.454 3.69539 138.932 3.27165 138.64 3.03479C137.948 2.47305 137.288 2.13297 136.81 1.92762C136.208 1.67772 135.696 1.54299 135.329 1.46585C134.892 1.37349 134.531 1.33546 134.023 1.28114C134.023 1.28114 133.446 1.22029 132.864 1.18878C131.971 1.14098 129.496 1.12685 126.181 1.18878C126.006 1.19747 125.596 1.24528 125.223 1.5582C124.975 1.76573 124.843 2.00693 124.787 2.11233C124.728 2.22098 124.652 2.36549 124.612 2.5741C124.567 2.80988 124.59 3.00762 124.612 3.12823C124.676 3.29555 124.76 3.48352 124.874 3.68235C125.045 3.98006 125.231 4.21149 125.391 4.38316L131.656 11.0207C132.283 11.6846 133.308 11.6846 133.936 11.0207C134.562 10.3569 134.562 9.27034 133.936 8.60539L130.16 4.60481H133.674C133.69 4.60481 133.704 4.60264 133.718 4.60264V4.60481C133.944 4.59069 135.756 4.51028 136.942 5.98904C137.847 7.11903 137.821 8.45111 137.813 8.85095C137.79 10.1287 137.264 11.0153 137.116 11.2511C136.987 11.4564 136.275 12.5549 134.938 13.0047C134.543 13.1373 134.25 13.1612 133.457 13.1894C130.665 13.2894 128.539 13.2025 128.229 13.1894C127.839 13.1731 127.295 13.1471 126.641 13.1112C126.443 13.0938 126.125 13.0916 125.761 13.2133C125.57 13.2764 125.358 13.347 125.146 13.5393C124.662 13.9761 124.62 14.6389 124.613 14.7595C124.607 14.8583 124.61 14.9409 124.613 14.9963C124.613 17.5638 124.613 20.1312 124.613 22.6976C124.613 23.6342 125.34 24.4056 126.226 24.4056C127.111 24.4056 127.838 23.6374 127.838 22.6976V16.3327C129.816 16.3577 131.776 16.3556 133.719 16.3284C134.312 16.3197 135.142 16.3012 136.159 15.959C136.657 15.7917 137.797 15.3918 138.861 14.2977C139.801 13.3296 140.201 12.3104 140.429 11.7128C140.59 11.2902 141.166 9.67996 140.952 7.55907L140.949 7.55798Z" fill="#00103C"/>
<path d="M175.409 18.5429V9.03472C175.416 8.92606 175.449 8.27306 174.987 7.7787C174.542 7.3028 173.961 7.32018 173.753 7.3267C173.555 7.33322 173.041 7.34843 172.628 7.7787C172.158 8.2698 172.18 8.92498 172.185 9.03472C172.185 9.33894 172.185 15.8342 172.185 15.8581C172.185 15.8635 172.185 16.297 172.185 16.3025V16.8772C172.114 17.2564 171.772 18.8634 170.443 19.8804C169.659 20.4791 168.753 20.6507 168.439 20.7116C167.945 20.8072 167.521 20.8159 167.22 20.8039C166.957 20.8072 166.596 20.792 166.175 20.7116C164.979 20.4834 164.171 19.8804 164.171 19.8804C163.096 19.0775 162.695 17.8964 162.562 17.4281C162.517 17.2445 162.473 17.0609 162.428 16.8772C162.358 15.9059 162.305 14.8998 162.271 13.8632C162.216 12.152 162.222 10.5189 162.271 8.97387C162.277 8.87174 162.305 8.25025 161.861 7.7787C161.451 7.34409 160.929 7.34409 160.733 7.34409C160.538 7.34409 160.013 7.34409 159.605 7.7787C159.141 8.27198 159.195 8.93584 159.204 9.03472C159.142 11.6098 159.138 14.2153 159.196 16.8479C159.198 16.962 159.201 17.0772 159.204 17.1912C159.218 17.2771 159.241 17.4031 159.271 17.5531C159.413 18.2311 159.853 20.2118 161.468 21.9122C162.388 22.8803 163.31 23.3584 163.734 23.5735C164.578 24.0016 165.27 24.1722 165.476 24.22C166.041 24.3514 166.525 24.3906 166.871 24.4025V24.4047C167.177 24.421 167.558 24.4242 167.994 24.3895C168.595 24.3417 169.04 24.2417 169.136 24.22C169.343 24.1722 170.035 24.0027 170.879 23.5735C171.088 23.467 171.532 23.2301 172.047 22.8575C172.014 23.4583 171.864 24.2276 171.402 24.9577C170.774 25.9465 169.873 26.3865 169.398 26.619C168.846 26.8885 168.351 27.0156 168.004 27.0808C167.534 27.171 167.098 27.2644 166.698 27.3579C166.256 27.46 166.034 27.5208 165.826 27.7273C165.578 27.9728 165.501 28.2749 165.477 28.3738C165.288 29.156 165.814 29.8471 166 30.035C166.234 30.2708 166.523 30.4045 166.523 30.4045C166.533 30.4099 166.543 30.4132 166.548 30.4153C166.562 30.4175 166.576 30.4197 166.59 30.4218C167.321 30.5294 169.128 30.6848 171.054 29.6656C172.81 28.7366 173.716 27.335 174.104 26.7114C174.39 26.2529 175.171 24.9816 175.411 23.2041C175.515 22.4326 175.504 21.6666 175.498 21.219C175.487 20.3998 175.411 19.2861 175.411 18.5418L175.409 18.5429Z" fill="#00103C"/>
<path d="M61.3993 7.32764C56.9483 7.32764 53.3394 11.15 53.3394 15.8666C53.3394 20.5832 56.9473 24.4056 61.3993 24.4056C65.8513 24.4056 69.4593 20.5832 69.4593 15.8666C69.4593 11.15 65.8513 7.32764 61.3993 7.32764ZM61.4865 20.8972C58.8641 20.8972 56.7381 18.6449 56.7381 15.8666C56.7381 13.0884 58.8641 10.836 61.4865 10.836C64.1089 10.836 66.2349 13.0884 66.2349 15.8666C66.2349 18.6449 64.1089 20.8972 61.4865 20.8972Z" fill="#00103C"/>
<path d="M157.341 8.70218C157.194 7.92097 156.539 7.32773 155.761 7.32773C154.895 7.32773 154.186 8.06113 154.152 8.96946C152.779 7.90576 151.075 7.29079 149.235 7.32881C144.948 7.42008 141.445 11.1164 141.342 15.6581C141.235 20.4692 144.884 24.4046 149.399 24.4046C151.177 24.4046 152.819 23.7951 154.151 22.7629C154.184 23.6712 154.894 24.4046 155.76 24.4046C156.538 24.4046 157.193 23.8114 157.34 23.0302V8.70218H157.341ZM149.692 20.8441C146.874 20.9951 144.56 18.5428 144.702 15.5581C144.824 13.0026 146.785 10.9252 149.197 10.7959C152.014 10.6449 154.329 13.0972 154.187 16.0818C154.065 18.6374 152.104 20.7148 149.692 20.8441Z" fill="#00103C"/>
<path d="M105.141 15.8178C105.128 15.4147 105.077 12.7744 103.474 10.6655C103.208 10.3145 100.937 7.4222 97.3527 7.382C93.5181 7.33963 89.1789 10.5742 89.0066 15.6059C88.824 20.9516 93.5622 24.0525 96.7691 24.448C97.1537 24.4958 99.4582 24.7425 101.454 23.317C101.925 22.9801 103.201 22.0675 103.197 20.818C103.197 20.6963 103.195 20.1389 102.817 19.6923C102.305 19.0882 101.51 19.1686 101.44 19.1773C100.768 19.261 100.572 19.7477 99.9217 20.228C98.5854 21.2145 96.9414 20.982 96.5845 20.931C96.1445 20.869 95.0215 20.693 94.0103 19.7238C93.3909 19.1295 93.0484 18.4635 92.8586 17.968C92.9478 17.9832 93.0391 17.993 93.1324 17.993H103.417C104.372 17.993 105.146 17.1727 105.146 16.1611C105.146 16.0807 105.146 15.9612 105.142 15.8178H105.141ZM92.6248 14.1619C92.6597 14.0478 92.6945 13.9446 92.7284 13.8555C92.794 13.7099 92.8863 13.5219 93.0084 13.3122C93.2924 12.8233 93.5734 12.4995 93.6493 12.4126C93.8309 12.2073 94.2298 11.79 94.8164 11.4413C95.1231 11.2587 96.162 10.66 97.5414 10.8067C98.4634 10.9045 99.1197 11.2924 99.5217 11.5293C99.7822 11.6825 100.153 11.9302 100.541 12.3072C100.541 12.3072 101.084 12.8353 101.374 13.4481C101.471 13.6534 101.517 13.8294 101.529 14.0087C101.531 14.0348 101.531 14.0587 101.531 14.0815H93.1314C92.955 14.0815 92.7848 14.1098 92.6238 14.1619H92.6248Z" fill="#00103C"/>
<path d="M122.781 15.8178C122.767 15.4147 122.717 12.7744 121.114 10.6655C120.847 10.3145 118.577 7.4222 114.992 7.382C111.158 7.33963 106.819 10.5742 106.646 15.6059C106.464 20.9516 111.202 24.0525 114.409 24.448C114.793 24.4958 117.098 24.7425 119.094 23.317C119.564 22.9801 120.841 22.0675 120.837 20.818C120.837 20.6963 120.835 20.1389 120.457 19.6923C119.945 19.0882 119.15 19.1686 119.079 19.1773C118.408 19.261 118.212 19.7477 117.561 20.228C116.225 21.2145 114.581 20.982 114.224 20.9309C113.784 20.869 112.661 20.693 111.65 19.7238C111.031 19.1295 110.688 18.4635 110.498 17.968C110.588 17.9832 110.679 17.993 110.772 17.993H121.057C122.011 17.993 122.786 17.1727 122.786 16.1611C122.786 16.0807 122.786 15.9612 122.782 15.8178H122.781ZM110.265 14.1619C110.299 14.0478 110.334 13.9446 110.368 13.8555C110.434 13.7099 110.526 13.5219 110.648 13.3122C110.932 12.8233 111.213 12.4995 111.289 12.4126C111.471 12.2073 111.87 11.79 112.456 11.4413C112.763 11.2587 113.802 10.66 115.181 10.8067C116.103 10.9045 116.759 11.2924 117.162 11.5293C117.422 11.6825 117.793 11.9302 118.181 12.3072C118.181 12.3072 118.723 12.8353 119.014 13.4481C119.111 13.6534 119.157 13.8294 119.169 14.0087C119.171 14.0348 119.171 14.0587 119.171 14.0815H110.771C110.595 14.0815 110.425 14.1098 110.264 14.1619H110.265Z" fill="#00103C"/>
<path d="M22.6593 4.70198C18.3612 0.0516611 9.98739 -1.49338 4.41137 3.99791C-1.3031 9.62611 -0.0754952 18.8887 3.7468 23.3304C7.04503 27.1637 13.1718 28.449 14.8363 26.8453C15.6075 26.1022 15.6824 25.2036 15.6824 25.2036C15.789 23.9291 14.7204 23.0077 14.6732 22.9675C13.823 22.2559 13.0795 22.572 11.8303 22.3352C9.26128 21.8473 7.64909 19.6113 7.29835 19.1256C6.86658 18.5269 5.78255 16.9797 5.67384 14.6676C5.58052 12.6771 6.25944 11.1777 6.59993 10.5301C6.60403 10.5225 6.60814 10.5149 6.61121 10.5062C6.87889 9.8923 7.38142 8.94051 8.28392 8.03218C9.09822 7.21294 9.92278 6.74791 10.4838 6.48931C10.494 6.48497 10.5022 6.48062 10.5125 6.47736C10.7412 6.39261 11.0406 6.29265 11.3965 6.20356C12.2406 5.9906 12.9051 5.96126 13.0846 5.95474C13.5102 5.93953 14.4076 5.94605 15.4444 6.25462C15.9859 6.41543 17.8043 6.98585 19.2083 8.80687C20.1487 10.0249 20.4769 11.2515 20.6789 12.0023C20.8092 12.4891 20.9661 13.2149 21.002 14.108C21.002 14.108 21.0522 15.3564 20.7261 16.3995C20.6164 16.7483 20.481 17.0036 20.3026 17.2198L20.2995 17.2242C20.1518 17.4024 19.8903 17.4024 19.7364 17.2307C17.7263 14.9772 15.7172 12.7227 13.7071 10.4692C13.6425 10.3975 13.4764 10.2248 13.2138 10.1216C13.0292 10.0488 12.7503 9.99118 12.2283 10.1216C11.3042 10.3508 10.6889 10.8973 10.5853 10.9919C10.3771 11.1809 9.89816 11.6264 9.59972 12.3848C9.46332 12.7303 9.26846 13.2453 9.43563 13.7777C9.52793 14.0743 9.6992 14.259 9.75458 14.3253C11.2365 16.0572 12.7185 17.7902 14.2004 19.5222L18.4237 24.003C18.436 24.016 18.4483 24.0269 18.4617 24.0378C18.6832 24.2181 18.9057 24.3985 19.1273 24.5788C19.1508 24.5984 19.1765 24.6147 19.2042 24.6277C19.3119 24.6788 19.6123 24.8081 19.9436 24.8461C20.0544 24.8592 20.1641 24.8581 20.2738 24.8494C20.1938 24.4517 20.1292 24.0497 20.0708 23.6488C19.9375 22.7491 19.8287 21.805 20.0031 20.9021C20.1918 19.9264 20.7774 19.231 21.5814 18.7746L24.1351 21.4801C24.9956 20.1056 25.8355 18.1977 26.0837 15.7704C26.1565 15.0533 26.6795 9.05134 22.6614 4.70307L22.6593 4.70198Z" fill="#00103C"/>
<path d="M24.1332 21.4786L22.9426 20.2171L13.6704 10.3938C12.9351 9.61481 11.7321 9.61481 10.9978 10.3938L9.51683 11.9628C8.7815 12.7418 8.7815 14.0163 9.51683 14.7943L18.789 24.6175C18.9716 24.774 19.469 25.1619 20.1253 25.2021C20.3089 25.2129 20.6145 25.2282 20.9458 25.0565C21.0832 24.9848 21.1847 24.9022 21.2534 24.8392C21.4586 24.6686 21.7488 24.4143 22.0739 24.0786C22.2329 23.9145 22.601 23.5332 22.839 23.204C23.2205 22.7791 23.6789 22.2044 24.1332 21.4796V21.4786Z" fill="#30F1E4"/>
</g>
<defs>
<clipPath id="clip0_54_4297">
<rect width="175" height="30" fill="white" transform="translate(0.5 0.5)"/>
</clipPath>
</defs>
</svg>
