<svg width="24" height="23" viewBox="0 0 24 23" fill="none" xmlns="http://www.w3.org/2000/svg">
<path d="M20.2536 3.50129C16.4221 -0.373982 8.95748 -1.66151 3.98686 2.91456C-1.10719 7.60472 -0.0128629 15.3236 3.39444 19.025C6.33458 22.2194 11.7961 23.2905 13.2799 21.9541C13.9674 21.3348 14.0341 20.586 14.0341 20.586C14.1292 19.5239 13.1766 18.7561 13.1346 18.7226C12.3767 18.1295 11.7139 18.393 10.6003 18.1956C8.31021 17.7891 6.87305 15.9257 6.56039 15.521C6.1755 15.0221 5.20917 13.7327 5.11226 11.8059C5.02907 10.1472 5.63428 8.89769 5.9378 8.35804C5.94146 8.35171 5.94512 8.34537 5.94786 8.33813C6.18647 7.82655 6.63444 7.03339 7.43896 6.27645C8.16485 5.59375 8.89988 5.20622 9.39996 4.99073C9.4091 4.98711 9.41642 4.98348 9.42556 4.98077C9.62943 4.91014 9.89638 4.82684 10.2136 4.7526C10.966 4.57513 11.5584 4.55069 11.7184 4.54525C12.0978 4.53258 12.8978 4.53801 13.822 4.79515C14.3048 4.92916 15.9257 5.40451 17.1772 6.92202C18.0156 7.93702 18.3081 8.95926 18.4882 9.58491C18.6043 9.99055 18.7442 10.5954 18.7762 11.3396C18.7762 11.3396 18.821 12.38 18.5303 13.2492C18.4325 13.5399 18.3118 13.7526 18.1527 13.9328L18.15 13.9364C18.0183 14.0849 17.7852 14.0849 17.6481 13.9419C15.8562 12.064 14.0652 10.1852 12.2734 8.30734C12.2158 8.24758 12.0677 8.10362 11.8336 8.0176C11.6691 7.95694 11.4204 7.90895 10.9551 8.0176C10.1313 8.20865 9.5828 8.66408 9.49047 8.74286C9.30488 8.9004 8.87794 9.27163 8.6119 9.90362C8.49031 10.1916 8.31661 10.6207 8.46563 11.0644C8.54791 11.3116 8.70058 11.4655 8.74995 11.5207C10.071 12.964 11.392 14.4082 12.7131 15.8514L16.4779 19.5855C16.4888 19.5963 16.4998 19.6054 16.5117 19.6144C16.7092 19.7647 16.9075 19.915 17.105 20.0653C17.126 20.0816 17.1489 20.0952 17.1736 20.1061C17.2696 20.1486 17.5374 20.2564 17.8327 20.2881C17.9315 20.2989 18.0293 20.298 18.1271 20.2908C18.0558 19.9594 17.9982 19.6244 17.9461 19.2903C17.8273 18.5406 17.7303 17.7538 17.8858 17.0013C18.054 16.1883 18.576 15.6088 19.2927 15.2285L21.5692 17.483C22.3362 16.3377 23.0849 14.7477 23.3062 12.725C23.3711 12.1274 23.8373 7.12575 20.2554 3.50219L20.2536 3.50129Z" fill="#F0F4FF"/>
<path d="M21.5674 17.4822L20.506 16.431L12.2405 8.24496C11.585 7.59576 10.5126 7.59576 9.85802 8.24496L8.53789 9.55241C7.88239 10.2016 7.88239 11.2637 8.53789 11.912L16.8034 20.098C16.9661 20.2284 17.4095 20.5516 17.9946 20.5851C18.1582 20.5942 18.4307 20.6069 18.726 20.4638C18.8485 20.4041 18.939 20.3352 19.0002 20.2827C19.1831 20.1406 19.4418 19.9287 19.7316 19.6489C19.8733 19.5122 20.2015 19.1944 20.4136 18.92C20.7537 18.566 21.1624 18.087 21.5674 17.4831V17.4822Z" fill="#30F1E4"/>
</svg>
