<svg width="126" height="25" viewBox="0 0 126 25" fill="none" xmlns="http://www.w3.org/2000/svg">
<path d="M14.572 8.87147C14.9972 8.51473 15.0968 7.98686 15.0959 7.75235C15.0867 5.1782 13.8087 2.79328 11.6712 1.49669C8.22003 -0.595771 4.25322 1.49126 3.20552 2.18935C1.91647 3.0477 1.25732 4.16501 1.25732 4.16501C0.960197 4.66844 0.798379 5.12568 0.708786 5.43262C0.658503 5.74138 0.614621 6.12438 0.603651 6.57438C0.603651 6.59249 0.603651 6.60516 0.603651 6.61331C0.591766 7.12036 0.484801 11.8322 0.605478 14.0877C0.610049 14.1746 0.617364 14.2615 0.631991 14.3765C0.77461 15.4793 1.34783 16.2616 1.71534 16.7515C1.82962 16.9036 2.30227 17.5211 3.08942 18.1522C4.24682 19.0803 5.33658 19.4406 5.6529 19.5366C6.16395 19.6914 7.87902 20.1849 9.92505 19.5366C12.0844 18.8521 13.219 17.3355 13.5755 16.8438C14.6379 15.3807 14.8929 13.9057 14.9652 13.1687C14.9706 13.1098 14.9816 13.0519 14.9944 12.9939C15.0383 12.8038 15.0904 12.4117 14.8957 11.9979C14.8399 11.8793 14.6945 11.5796 14.3517 11.3822C13.8379 11.0862 13.3004 11.2645 13.187 11.3053C12.7847 11.4511 12.5681 11.7354 12.4876 11.844C12.2325 12.189 12.1877 12.5403 12.1768 12.6906C12.1567 12.9704 12.1018 13.3787 11.9437 13.8441C11.8211 14.2054 11.2699 15.8297 9.53559 16.613C7.65413 17.4632 5.91528 16.6292 5.72969 16.536C4.20568 15.7727 3.66812 14.3883 3.55567 14.0768C3.54013 14.0379 3.52459 13.999 3.50813 13.96C3.43591 13.7862 3.39934 13.5997 3.39934 13.4122V7.07509C3.39934 6.66402 3.51362 6.36885 3.55476 6.2285C3.57761 6.15064 3.74857 5.5784 4.0914 5.07045C4.79444 4.0301 5.9683 3.63805 6.27365 3.53574C6.63477 3.41531 7.74646 3.05857 9.06934 3.45877C10.7232 3.95857 11.524 5.27417 11.7471 5.68886C11.7727 5.73685 11.7965 5.78665 11.8166 5.83826C12.0671 6.47569 12.1494 7.00537 12.1768 7.38293C12.2079 7.81935 12.1658 8.05567 12.3322 8.38254C12.4748 8.66322 12.7756 9.02087 13.2638 9.15216C13.7401 9.27982 14.2393 9.15216 14.572 8.87238V8.87147Z" fill="#F0F4FF"/>
<path d="M45.4572 0.458984C44.6673 0.458984 44.0201 1.09913 44.0201 1.88233V7.11304C42.8197 6.21937 41.3268 5.6906 39.7095 5.6906C35.7418 5.6906 32.5247 8.87592 32.5247 12.8064C32.5247 16.7369 35.7409 19.9222 39.7095 19.9222C41.3268 19.9222 42.8197 19.3926 44.0201 18.4998C44.0201 19.2821 44.6664 19.9222 45.4572 19.9222C46.248 19.9222 46.8944 19.2821 46.8944 18.4989V1.88233C46.8944 1.10003 46.248 0.458984 45.4572 0.458984ZM39.7872 16.9977C37.4496 16.9977 35.5544 15.1207 35.5544 12.8055C35.5544 10.4903 37.4496 8.61334 39.7872 8.61334C42.1249 8.61334 44.0201 10.4903 44.0201 12.8055C44.0201 15.1207 42.1249 16.9977 39.7872 16.9977Z" fill="#F0F4FF"/>
<path d="M94.6999 5.88165C94.624 5.17722 94.5006 4.15318 93.7683 3.18889C93.3678 2.66283 92.9025 2.30971 92.6419 2.11232C92.0248 1.64421 91.437 1.36081 91.011 1.18968C90.4743 0.981431 90.0172 0.869157 89.6909 0.804871C89.3005 0.727909 88.9787 0.696219 88.5261 0.650947C88.5261 0.650947 88.0114 0.600243 87.4931 0.573985C86.6968 0.534146 84.4908 0.522375 81.536 0.573985C81.3797 0.581229 81.014 0.621068 80.6812 0.881833C80.4609 1.05477 80.3429 1.25578 80.2927 1.34361C80.2405 1.43415 80.1729 1.55457 80.1372 1.72842C80.097 1.9249 80.1171 2.08969 80.1372 2.19019C80.1939 2.32963 80.2689 2.48627 80.3704 2.65196C80.523 2.90005 80.6885 3.09291 80.8311 3.23597L86.4161 8.76728C86.9747 9.3205 87.8889 9.3205 88.4484 8.76728C89.007 8.21406 89.007 7.30862 88.4484 6.75449L85.0823 3.42068H88.2153C88.229 3.42068 88.2418 3.41887 88.2546 3.41887V3.42068C88.4557 3.40891 90.0712 3.3419 91.128 4.5742C91.9353 5.51586 91.9115 6.62592 91.9051 6.95912C91.8841 8.02392 91.4151 8.76275 91.2834 8.95923C91.1682 9.13036 90.5338 10.0458 89.3416 10.4206C88.9896 10.5311 88.7282 10.551 88.0215 10.5745C85.533 10.6578 83.6378 10.5854 83.3617 10.5745C83.0134 10.5609 82.5288 10.5392 81.9456 10.5093C81.7691 10.4949 81.4857 10.493 81.1612 10.5944C80.9911 10.647 80.8019 10.7058 80.6126 10.8661C80.1811 11.2301 80.1445 11.7824 80.1381 11.8829C80.1327 11.9653 80.1354 12.0341 80.1381 12.0803C80.1381 14.2198 80.1381 16.3594 80.1381 18.498C80.1381 19.2785 80.7863 19.9213 81.5753 19.9213C82.3643 19.9213 83.0125 19.2812 83.0125 18.498V13.194C84.776 13.2148 86.5231 13.213 88.2555 13.1903C88.7839 13.1831 89.5235 13.1677 90.4305 12.8825C90.8739 12.743 91.8905 12.4098 92.8385 11.4981C93.6769 10.6913 94.0334 9.84203 94.2364 9.34404C94.3799 8.99183 94.8937 7.64997 94.7026 5.88256L94.6999 5.88165Z" fill="#F0F4FF"/>
<path d="M125.419 15.0355V7.11202C125.425 7.02148 125.454 6.47731 125.043 6.06534C124.646 5.66875 124.128 5.68324 123.943 5.68867C123.766 5.69411 123.308 5.70678 122.94 6.06534C122.521 6.47459 122.541 7.02057 122.545 7.11202C122.545 7.36554 122.545 12.7782 122.545 12.7982C122.545 12.8027 122.545 13.164 122.545 13.1685V13.6475C122.481 13.9635 122.177 15.3026 120.992 16.1501C120.293 16.649 119.485 16.792 119.206 16.8427C118.765 16.9224 118.387 16.9297 118.119 16.9197C117.884 16.9224 117.563 16.9097 117.187 16.8427C116.121 16.6526 115.401 16.1501 115.401 16.1501C114.442 15.481 114.085 14.4968 113.967 14.1065C113.927 13.9535 113.888 13.8005 113.847 13.6475C113.785 12.838 113.738 11.9996 113.707 11.1358C113.658 9.70972 113.664 8.34885 113.707 7.06132C113.713 6.9762 113.738 6.45829 113.342 6.06534C112.976 5.70316 112.511 5.70316 112.336 5.70316C112.162 5.70316 111.694 5.70316 111.33 6.06534C110.917 6.4764 110.965 7.02963 110.973 7.11202C110.918 9.2579 110.914 11.4291 110.966 13.623C110.967 13.7181 110.97 13.8141 110.973 13.9091C110.986 13.9807 111.006 14.0857 111.033 14.2106C111.159 14.7756 111.552 16.4262 112.992 17.8433C113.812 18.65 114.634 19.0484 115.011 19.2277C115.763 19.5844 116.381 19.7266 116.564 19.7664C117.068 19.876 117.5 19.9086 117.808 19.9185V19.9203C118.08 19.9339 118.42 19.9366 118.809 19.9076C119.345 19.8678 119.741 19.7845 119.827 19.7664C120.011 19.7266 120.628 19.5853 121.38 19.2277C121.567 19.1389 121.963 18.9415 122.422 18.631C122.393 19.1317 122.259 19.7727 121.847 20.3812C121.287 21.2051 120.484 21.5718 120.06 21.7656C119.568 21.9901 119.127 22.0961 118.818 22.1504C118.399 22.2256 118.01 22.3034 117.653 22.3813C117.259 22.4664 117.062 22.5171 116.876 22.6891C116.655 22.8938 116.586 23.1455 116.565 23.2279C116.397 23.8798 116.865 24.4557 117.032 24.6123C117.24 24.8088 117.498 24.9201 117.498 24.9201C117.507 24.9247 117.515 24.9274 117.52 24.9292C117.533 24.931 117.544 24.9328 117.557 24.9346C118.209 25.0243 119.82 25.1537 121.537 24.3044C123.102 23.5303 123.909 22.3623 124.256 21.8426C124.511 21.4605 125.206 20.4011 125.42 18.9198C125.514 18.277 125.504 17.6386 125.498 17.2656C125.488 16.5829 125.42 15.6548 125.42 15.0346L125.419 15.0355Z" fill="#F0F4FF"/>
<path d="M23.7874 5.68945C19.8197 5.68945 16.6025 8.87478 16.6025 12.8053C16.6025 16.7358 19.8188 19.9211 23.7874 19.9211C27.756 19.9211 30.9723 16.7358 30.9723 12.8053C30.9723 8.87478 27.756 5.68945 23.7874 5.68945ZM23.8651 16.9974C21.5275 16.9974 19.6323 15.1205 19.6323 12.8053C19.6323 10.4901 21.5275 8.61311 23.8651 8.61311C26.2028 8.61311 28.098 10.4901 28.098 12.8053C28.098 15.1205 26.2028 16.9974 23.8651 16.9974Z" fill="#F0F4FF"/>
<path d="M109.313 6.83482C109.181 6.18382 108.598 5.68945 107.904 5.68945C107.132 5.68945 106.5 6.30062 106.47 7.05756C105.245 6.17114 103.727 5.65866 102.087 5.69035C98.2653 5.76641 95.1423 8.8467 95.0509 12.6314C94.9549 16.6407 98.2077 19.9202 102.233 19.9202C103.817 19.9202 105.281 19.4122 106.469 18.5521C106.498 19.309 107.131 19.9202 107.903 19.9202C108.597 19.9202 109.18 19.4258 109.312 18.7748V6.83482H109.313ZM102.494 16.9531C99.9822 17.0789 97.9188 15.0354 98.0459 12.5481C98.1547 10.4185 99.9027 8.68735 102.053 8.5796C104.564 8.45375 106.628 10.4973 106.501 12.9845C106.392 15.1141 104.644 16.8453 102.494 16.9531Z" fill="#F0F4FF"/>
<path d="M62.7799 12.7645C62.768 12.4286 62.7232 10.2284 61.2943 8.47095C61.0566 8.17849 59.0325 5.76822 55.8373 5.73472C52.419 5.69941 48.551 8.39489 48.3974 12.588C48.2347 17.0427 52.4584 19.6268 55.3171 19.9564C55.66 19.9962 57.7142 20.2018 59.4933 19.0138C59.9129 18.7332 61.0511 17.9726 61.0475 16.9313C61.0475 16.8299 61.0456 16.3654 60.7083 15.9933C60.2521 15.4899 59.5436 15.5569 59.4805 15.5641C58.8817 15.6339 58.7071 16.0395 58.1274 16.4397C56.9362 17.2618 55.4707 17.0681 55.1526 17.0255C54.7604 16.9739 53.7593 16.8272 52.8579 16.0196C52.3057 15.5243 52.0003 14.9693 51.8312 14.5564C51.9107 14.5691 51.9921 14.5772 52.0753 14.5772H61.2431C62.0943 14.5772 62.7845 13.8936 62.7845 13.0506C62.7845 12.9836 62.7845 12.884 62.7808 12.7645H62.7799ZM51.6228 11.3846C51.6538 11.2896 51.6849 11.2036 51.7151 11.1293C51.7736 11.008 51.8559 10.8513 51.9647 10.6766C52.2179 10.2691 52.4684 9.99932 52.5361 9.92689C52.6979 9.75576 53.0535 9.40807 53.5765 9.11743C53.8498 8.96531 54.7759 8.46642 56.0055 8.58865C56.8274 8.67014 57.4125 8.99338 57.7709 9.19077C58.0031 9.31843 58.3341 9.52487 58.6796 9.83906C58.6796 9.83906 59.1633 10.2791 59.422 10.7898C59.5088 10.9609 59.55 11.1076 59.56 11.257C59.5619 11.2787 59.5619 11.2986 59.5619 11.3176H52.0744C51.9171 11.3176 51.7654 11.3412 51.6218 11.3846H51.6228Z" fill="#F0F4FF"/>
<path d="M78.5044 12.7645C78.4925 12.4286 78.4477 10.2284 77.0188 8.47095C76.7811 8.17849 74.757 5.76822 71.5618 5.73472C68.1435 5.69941 64.2755 8.39489 64.1219 12.588C63.9591 17.0427 68.1828 19.6268 71.0416 19.9564C71.3844 19.9962 73.4387 20.2018 75.2178 19.0138C75.6374 18.7332 76.7756 17.9726 76.772 16.9313C76.772 16.8299 76.7701 16.3654 76.4328 15.9933C75.9766 15.4899 75.2681 15.5569 75.205 15.5641C74.6062 15.6339 74.4316 16.0395 73.8519 16.4397C72.6607 17.2618 71.1952 17.0681 70.8771 17.0255C70.4849 16.9739 69.4838 16.8272 68.5824 16.0196C68.0302 15.5243 67.7248 14.9693 67.5557 14.5564C67.6352 14.5691 67.7166 14.5772 67.7998 14.5772H76.9676C77.8187 14.5772 78.509 13.8936 78.509 13.0506C78.509 12.9836 78.509 12.884 78.5053 12.7645H78.5044ZM67.3473 11.3846C67.3783 11.2896 67.4094 11.2036 67.4396 11.1293C67.4981 11.008 67.5804 10.8513 67.6892 10.6766C67.9424 10.2691 68.1929 9.99932 68.2606 9.92689C68.4224 9.75576 68.778 9.40807 69.3009 9.11743C69.5743 8.96531 70.5004 8.46642 71.73 8.58865C72.5519 8.67014 73.137 8.99338 73.4954 9.19077C73.7276 9.31843 74.0585 9.52487 74.4041 9.83906C74.4041 9.83906 74.8877 10.2791 75.1465 10.7898C75.2333 10.9609 75.2745 11.1076 75.2845 11.257C75.2863 11.2787 75.2863 11.2986 75.2863 11.3176H67.7989C67.6416 11.3176 67.4899 11.3412 67.3463 11.3846H67.3473Z" fill="#F0F4FF"/>
</svg>
