<svg width="47" height="48" viewBox="0 0 47 48" fill="none" xmlns="http://www.w3.org/2000/svg">
<g id="Danger Circle">
<path id="Vector" fill-rule="evenodd" clip-rule="evenodd" d="M46.8334 24C46.8334 36.8866 36.3867 47.3333 23.5001 47.3333C10.6134 47.3333 0.166748 36.8866 0.166748 24C0.166748 11.1133 10.6134 0.666626 23.5001 0.666626C36.3867 0.666626 46.8334 11.1133 46.8334 24ZM23.5001 10.5833C24.4666 10.5833 25.2501 11.3668 25.2501 12.3333V26.3333C25.2501 27.2998 24.4666 28.0833 23.5001 28.0833C22.5336 28.0833 21.7501 27.2998 21.7501 26.3333V12.3333C21.7501 11.3668 22.5336 10.5833 23.5001 10.5833ZM23.5001 35.6666C24.7887 35.6666 25.8334 34.622 25.8334 33.3333C25.8334 32.0446 24.7887 31 23.5001 31C22.2114 31 21.1667 32.0446 21.1667 33.3333C21.1667 34.622 22.2114 35.6666 23.5001 35.6666Z" fill="#F8C666"/>
</g>
</svg>
