<svg width="20" height="24" viewBox="0 0 20 24" fill="none" xmlns="http://www.w3.org/2000/svg">
<path d="M0 5.22402L2.9876 10.419V13.5878L0.00349499 18.7726L0 5.22402Z" fill="#5B57A2"/>
<path d="M11.4712 8.52859L14.2707 6.85939L20 6.85419L11.4712 11.937V8.52859Z" fill="#D90751"/>
<path d="M11.4553 5.19339L11.4712 12.0714L8.47659 10.2814V0L11.4553 5.19339Z" fill="#FAB718"/>
<path d="M20 6.85419L14.2705 6.85939L11.4553 5.19339L8.47659 0L20 6.85419Z" fill="#ED6F26"/>
<path d="M11.4712 18.8014V15.4644L8.47659 13.7084L8.47823 24L11.4712 18.8014Z" fill="#63B22F"/>
<path d="M14.2637 17.1474L2.9876 10.419L0 5.22402L19.9879 17.1406L14.2637 17.1474Z" fill="#1487C9"/>
<path d="M8.47844 24L11.4712 18.8014L14.2635 17.1474L19.9877 17.1406L8.47844 24Z" fill="#017F36"/>
<path d="M0.00349499 18.7726L8.50108 13.7086L5.64423 12.0034L2.9876 13.5878L0.00349499 18.7726Z" fill="#984995"/>
</svg>
