<svg width="19" height="18" viewBox="0 0 19 18" fill="none" xmlns="http://www.w3.org/2000/svg">
<path d="M2 5.25L5.3075 1.9425C5.44704 1.80212 5.61299 1.69075 5.79577 1.61481C5.97856 1.53886 6.17457 1.49984 6.3725 1.5H12.6275C12.8254 1.49984 13.0214 1.53886 13.2042 1.61481C13.387 1.69075 13.553 1.80212 13.6925 1.9425L17 5.25M2 5.25H17M2 5.25V7.5C2 7.89783 2.15804 8.27936 2.43934 8.56066C2.72064 8.84197 3.10218 9 3.5 9M17 5.25V7.5C17 7.89783 16.842 8.27936 16.5607 8.56066C16.2794 8.84197 15.8978 9 15.5 9M3.5 9V15C3.5 15.3978 3.65804 15.7794 3.93934 16.0607C4.22064 16.342 4.60218 16.5 5 16.5H14C14.3978 16.5 14.7794 16.342 15.0607 16.0607C15.342 15.7794 15.5 15.3978 15.5 15V9M3.5 9C3.9382 8.97588 4.3567 8.81006 4.6925 8.5275C4.78199 8.46283 4.88959 8.42802 5 8.42802C5.11041 8.42802 5.21801 8.46283 5.3075 8.5275C5.6433 8.81006 6.0618 8.97588 6.5 9C6.9382 8.97588 7.3567 8.81006 7.6925 8.5275C7.78199 8.46283 7.88959 8.42802 8 8.42802C8.11041 8.42802 8.21801 8.46283 8.3075 8.5275C8.6433 8.81006 9.0618 8.97588 9.5 9C9.9382 8.97588 10.3567 8.81006 10.6925 8.5275C10.782 8.46283 10.8896 8.42802 11 8.42802C11.1104 8.42802 11.218 8.46283 11.3075 8.5275C11.6433 8.81006 12.0618 8.97588 12.5 9C12.9382 8.97588 13.3567 8.81006 13.6925 8.5275C13.782 8.46283 13.8896 8.42802 14 8.42802C14.1104 8.42802 14.218 8.46283 14.3075 8.5275C14.6433 8.81006 15.0618 8.97588 15.5 9M11.75 16.5V13.5C11.75 13.1022 11.592 12.7206 11.3107 12.4393C11.0294 12.158 10.6478 12 10.25 12H8.75C8.35218 12 7.97064 12.158 7.68934 12.4393C7.40804 12.7206 7.25 13.1022 7.25 13.5V16.5" stroke="#00103C" stroke-width="1.5" stroke-linecap="round" stroke-linejoin="round"/>
</svg>
