<svg width="56" height="56" viewBox="0 0 56 56" fill="none" xmlns="http://www.w3.org/2000/svg">
<path fill-rule="evenodd" clip-rule="evenodd" d="M28.0001 51.3333C40.8867 51.3333 51.3334 40.8866 51.3334 28C51.3334 15.1134 40.8867 4.66666 28.0001 4.66666C15.1134 4.66666 4.66675 15.1134 4.66675 28C4.66675 40.8866 15.1134 51.3333 28.0001 51.3333ZM40.9706 22.1673C41.6152 21.4472 41.5541 20.3409 40.834 19.6962C40.114 19.0515 39.0076 19.1126 38.3629 19.8327L30.5015 28.6135C28.9086 30.3927 27.8358 31.5846 26.9186 32.3555C26.0449 33.0899 25.5317 33.25 25.0834 33.25C24.6351 33.25 24.1219 33.0899 23.2482 32.3555C22.331 31.5846 21.2583 30.3927 19.6653 28.6134L17.6372 26.3482C16.9925 25.6281 15.8862 25.567 15.1661 26.2117C14.446 26.8564 14.3849 27.9627 15.0296 28.6828L17.1443 31.0448C18.628 32.7021 19.8655 34.0844 20.9962 35.0348C22.1924 36.0402 23.4826 36.75 25.0834 36.75C26.6843 36.75 27.9744 36.0402 29.1706 35.0348C30.3013 34.0844 31.5389 32.7021 33.0225 31.0448L40.9706 22.1673Z" fill="#64BDA1"/>
</svg>
